# xmcd
#
# Track frame offsets:
#	150
#	16202
#	31942
#	49617
#	67692
#	80040
#	95510
#	111222
#	128992
#	142587
#	158242
#	173175
#	188650
#	208090
#
# Disc length: 2953 seconds
#
# Revision: 1
# Processed by: cddbd v1.5.2PL0 Copyright (c) Steve Scherf et al.
# Submitted via: audiograbber 1.81.02
#
DISCID=b00b870e
DTITLE=MISSORA HIBARI - VOLUME01
DYEAR=1900
DGENRE=BLUES
TTITLE0=HONEMADE AISHITE
TTITLE1=DYUDAI NO KOIYO SAYONARA
TTITLE2=OOKAWA NAGASHI
TTITLE3=RINGO OIWAKE
TTITLE4=TSUKIGA TOTTEMO AOIKARA
TTITLE5=NAGASSAKI MONOGATARI
TTITLE6=KONO MITI O IKU
TTITLE7=ZASSOU NO UTA
TTITLE8=OTOKO NO DYUNDYOU
TTITLE9=YAWARA
TTITLE10=KOHAN NO YADO
TTITLE11=DAREKA KOKYOO OMOWAZARU
TTITLE12=NOREN ITIDAI
TTITLE13=AISHU NO MATI NI KIRI GA FURU
EXTD=KIROIVA@HOTMAIL.COM
EXTT0=
EXTT1=
EXTT2=
EXTT3=
EXTT4=
EXTT5=
EXTT6=
EXTT7=
EXTT8=
EXTT9=
EXTT10=
EXTT11=
EXTT12=
EXTT13=
PLAYORDER=
